<?xml version="1.0" encoding="UTF-8"?>
<svg width="155px" height="40px" viewBox="0 0 155 40" version="1.1" xmlns="http://www.w3.org/2000/svg" xmlns:xlink="http://www.w3.org/1999/xlink">
    <!-- Generator: Sketch 50.2 (55047) - http://www.bohemiancoding.com/sketch -->
    <title>Group</title>
    <desc>Created with Sketch.</desc>
    <defs></defs>
    <g id="Logo" stroke="none" stroke-width="1" fill="none" fill-rule="evenodd">
        <g id="Artboard-3" transform="translate(-188.000000, -36.000000)">
            <g id="Group" transform="translate(188.000000, 36.000000)">
                <g id="Group-2-Copy">
                    <circle id="Oval-3-Copy" fill="#1AB97E" cx="20" cy="20" r="20"></circle>
                    <path d="M12.5,9 L15,9 C15.6666667,11.6666667 17.3333333,13 20,13 C22.6666667,13 24.3333333,11.6666667 25,9 L27.5,9 C28.0522847,9 28.5,9.44771525 28.5,10 L28.5,30 C28.5,30.5522847 28.0522847,31 27.5,31 L25,31 C24.3333333,28.3333333 22.6666667,27 20,27 C17.3333333,27 15.6666667,28.3333333 15,31 L12.5,31 C11.9477153,31 11.5,30.5522847 11.5,30 L11.5,10 C11.5,9.44771525 11.9477153,9 12.5,9 Z" id="Rectangle-4-Copy-2" stroke="#FFFFFF" stroke-width="2.2"></path>
                </g>
                <path d="M57.208,21.122 L57.208,27.882 C57.208,28.2633352 57.0866679,28.5666655 56.844,28.792 C56.6013321,29.0173345 56.2806687,29.13 55.882,29.13 C55.4833313,29.13 55.1670012,29.0173345 54.933,28.792 C54.6989988,28.5666655 54.582,28.2633352 54.582,27.882 L54.582,21.148 C54.582,20.1079948 54.3696688,19.3453358 53.945,18.86 C53.5203312,18.3746642 52.8573378,18.132 51.956,18.132 C50.8986614,18.132 50.0493365,18.46133 49.408,19.12 C48.7666635,19.77867 48.446,20.6626611 48.446,21.772 L48.446,27.882 C48.446,28.2633352 48.3290012,28.5666655 48.095,28.792 C47.8609988,29.0173345 47.5446687,29.13 47.146,29.13 C46.7473313,29.13 46.4266679,29.0173345 46.184,28.792 C45.9413321,28.5666655 45.82,28.2633352 45.82,27.882 L45.82,11.788 C45.82,11.4066648 45.9456654,11.1033345 46.197,10.878 C46.4483346,10.6526655 46.7733313,10.54 47.172,10.54 C47.5533352,10.54 47.8609988,10.6483323 48.095,10.865 C48.3290012,11.0816678 48.446,11.3719982 48.446,11.736 L48.446,18.236 C48.8793355,17.5079964 49.4599964,16.9533352 50.188,16.572 C50.9160036,16.1906648 51.7479953,16 52.684,16 C55.7000151,16 57.208,17.7073163 57.208,21.122 Z M70.9663334,16.39 C71.2003346,16.6153345 71.3173334,16.9273313 71.3173334,17.326 L71.3173334,27.908 C71.3173334,28.2720018 71.1960013,28.5666655 70.9533334,28.792 C70.7106655,29.0173345 70.3900021,29.13 69.9913334,29.13 C69.6273316,29.13 69.3326679,29.0216678 69.1073334,28.805 C68.8819989,28.5883323 68.7693334,28.2980018 68.7693334,27.934 L68.7693334,26.946 C68.3706647,27.6740036 67.8203369,28.2286648 67.1183334,28.61 C66.4163299,28.9913352 65.6320044,29.182 64.7653334,29.182 C61.6799846,29.182 60.1373334,27.4833503 60.1373334,24.086 L60.1373334,17.326 C60.1373334,16.9273313 60.2543322,16.6153345 60.4883334,16.39 C60.7223346,16.1646655 61.0473313,16.052 61.4633334,16.052 C61.8620021,16.052 62.1783322,16.1646655 62.4123334,16.39 C62.6463346,16.6153345 62.7633334,16.9273313 62.7633334,17.326 L62.7633334,24.06 C62.7633334,25.0826718 62.9713313,25.8366642 63.3873334,26.322 C63.8033355,26.8073358 64.4446624,27.05 65.3113334,27.05 C66.3340052,27.05 67.152997,26.72067 67.7683334,26.062 C68.3836698,25.40333 68.6913334,24.5280055 68.6913334,23.436 L68.6913334,17.326 C68.6913334,16.9446648 68.8126655,16.6370012 69.0553334,16.403 C69.2980013,16.1689988 69.6186647,16.052 70.0173334,16.052 C70.4160021,16.052 70.7323322,16.1646655 70.9663334,16.39 Z M93.2006668,21.122 L93.2006668,27.882 C93.2006668,28.2806687 93.0793347,28.5883323 92.8366668,28.805 C92.5939989,29.0216678 92.2733355,29.13 91.8746668,29.13 C91.4933316,29.13 91.1813347,29.0216678 90.9386668,28.805 C90.6959989,28.5883323 90.5746668,28.2806687 90.5746668,27.882 L90.5746668,21.148 C90.5746668,20.0906614 90.384002,19.3236691 90.0026668,18.847 C89.6213316,18.370331 89.0233375,18.132 88.2086668,18.132 C87.2553287,18.132 86.5013362,18.4569968 85.9466668,19.107 C85.3919974,19.7570033 85.1146668,20.6453277 85.1146668,21.772 L85.1146668,27.882 C85.1146668,28.2806687 84.9933347,28.5883323 84.7506668,28.805 C84.5079989,29.0216678 84.1873355,29.13 83.7886668,29.13 C83.4073316,29.13 83.0953347,29.0216678 82.8526668,28.805 C82.6099989,28.5883323 82.4886668,28.2806687 82.4886668,27.882 L82.4886668,21.148 C82.4886668,20.0906614 82.298002,19.3236691 81.9166668,18.847 C81.5353316,18.370331 80.9373375,18.132 80.1226668,18.132 C79.1693287,18.132 78.4110029,18.4569968 77.8476668,19.107 C77.2843306,19.7570033 77.0026668,20.6453277 77.0026668,21.772 L77.0026668,27.882 C77.0026668,28.2806687 76.8813347,28.5883323 76.6386668,28.805 C76.3959989,29.0216678 76.084002,29.13 75.7026668,29.13 C75.3213316,29.13 75.0050014,29.0216678 74.7536668,28.805 C74.5023322,28.5883323 74.3766668,28.2806687 74.3766668,27.882 L74.3766668,17.3 C74.3766668,16.9186648 74.5066655,16.6153345 74.7666668,16.39 C75.0266681,16.1646655 75.338665,16.052 75.7026668,16.052 C76.0666686,16.052 76.3656656,16.1603323 76.5996668,16.377 C76.833668,16.5936678 76.9506668,16.8926648 76.9506668,17.274 L76.9506668,18.236 C77.332002,17.5079964 77.8606634,16.9533352 78.5366668,16.572 C79.2126702,16.1906648 79.9926624,16 80.8766668,16 C81.8473383,16 82.648997,16.1993313 83.2816668,16.598 C83.9143366,16.9966687 84.3866652,17.6119958 84.6986668,18.444 C85.080002,17.6986629 85.6433297,17.1050022 86.3886668,16.663 C87.1340039,16.2209978 87.9833287,16 88.9366668,16 C91.7793477,16 93.2006668,17.7073163 93.2006668,21.122 Z M105.269,17.274 C106.092338,18.1233376 106.504,19.414658 106.504,21.148 L106.504,27.882 C106.504,28.2806687 106.391335,28.5883323 106.166,28.805 C105.940666,29.0216678 105.628669,29.13 105.23,29.13 C104.848665,29.13 104.545335,29.0173345 104.32,28.792 C104.094666,28.5666655 103.982,28.2633352 103.982,27.882 L103.982,26.92 C103.652665,27.6480036 103.163003,28.2069981 102.513,28.597 C101.862997,28.987002 101.104671,29.182 100.238,29.182 C99.405996,29.182 98.643337,29.0130017 97.9500002,28.675 C97.2566634,28.3369983 96.7150021,27.8646697 96.3250002,27.258 C95.9349982,26.6513303 95.7400002,25.9753371 95.7400002,25.23 C95.7400002,24.3113287 95.9783311,23.5876693 96.4550002,23.059 C96.9316692,22.5303307 97.720328,22.1533345 98.8210002,21.928 C99.9216724,21.7026655 101.433991,21.59 103.358,21.59 L103.956,21.59 L103.956,20.836 C103.956,19.8653285 103.756669,19.1633355 103.358,18.73 C102.959332,18.2966645 102.318005,18.08 101.434,18.08 C100.82733,18.08 100.255336,18.1579992 99.7180002,18.314 C99.1806642,18.4700008 98.5913367,18.6953319 97.9500002,18.99 C97.4819979,19.2500013 97.1526678,19.38 96.9620002,19.38 C96.7019989,19.38 96.4896677,19.2846676 96.3250002,19.094 C96.1603327,18.9033324 96.0780002,18.6606681 96.0780002,18.366 C96.0780002,18.1059987 96.1516661,17.8763343 96.2990002,17.677 C96.4463343,17.4776657 96.6846652,17.2826676 97.0140002,17.092 C97.6206699,16.762665 98.3313295,16.4983343 99.1460002,16.299 C99.9606709,16.0996657 100.74933,16 101.512,16 C103.193342,16 104.445663,16.4246624 105.269,17.274 Z M103.046,26.257 C103.65267,25.6069968 103.956,24.7706718 103.956,23.748 L103.956,23.072 L103.488,23.072 C102.135993,23.072 101.096004,23.1326661 100.368,23.254 C99.6399966,23.3753339 99.1200018,23.5789986 98.8080002,23.865 C98.4959986,24.1510014 98.3400002,24.562664 98.3400002,25.1 C98.3400002,25.7240031 98.5653313,26.2353313 99.0160002,26.634 C99.4666691,27.0326687 100.029997,27.232 100.706,27.232 C101.659338,27.232 102.43933,26.9070033 103.046,26.257 Z M120.873334,21.122 L120.873334,27.882 C120.873334,28.2806687 120.756335,28.5883323 120.522334,28.805 C120.288332,29.0216678 119.963336,29.13 119.547334,29.13 C119.148665,29.13 118.832335,29.0173345 118.598334,28.792 C118.364332,28.5666655 118.247334,28.2633352 118.247334,27.882 L118.247334,21.252 C118.247334,20.177328 118.035002,19.3886692 117.610334,18.886 C117.185665,18.3833308 116.522671,18.132 115.621334,18.132 C114.563995,18.132 113.71467,18.46133 113.073334,19.12 C112.431997,19.77867 112.111334,20.6626611 112.111334,21.772 L112.111334,27.882 C112.111334,28.2633352 111.994335,28.5666655 111.760334,28.792 C111.526332,29.0173345 111.210002,29.13 110.811334,29.13 C110.412665,29.13 110.092001,29.0173345 109.849334,28.792 C109.606666,28.5666655 109.485334,28.2633352 109.485334,27.882 L109.485334,17.3 C109.485334,16.9359982 109.610999,16.6370012 109.862334,16.403 C110.113668,16.1689988 110.429998,16.052 110.811334,16.052 C111.192669,16.052 111.495999,16.1646655 111.721334,16.39 C111.946668,16.6153345 112.059334,16.9099982 112.059334,17.274 L112.059334,18.34 C112.475336,17.5773295 113.055997,16.9966687 113.801334,16.598 C114.546671,16.1993313 115.387329,16 116.323334,16 C119.356682,16 120.873334,17.7073163 120.873334,21.122 Z M124.231667,28.818 C123.980332,28.609999 123.854667,28.2980021 123.854667,27.882 L123.854667,17.326 C123.854667,16.9099979 123.980332,16.5936678 124.231667,16.377 C124.483002,16.1603323 124.799332,16.052 125.180667,16.052 C125.562002,16.052 125.873999,16.1603323 126.116667,16.377 C126.359335,16.5936678 126.480667,16.9099979 126.480667,17.326 L126.480667,27.882 C126.480667,28.2980021 126.359335,28.609999 126.116667,28.818 C125.873999,29.026001 125.562002,29.13 125.180667,29.13 C124.799332,29.13 124.483002,29.026001 124.231667,28.818 Z M123.984667,13.088 C123.689999,12.8106653 123.542667,12.4466689 123.542667,11.996 C123.542667,11.5453311 123.689999,11.185668 123.984667,10.917 C124.279335,10.648332 124.677998,10.514 125.180667,10.514 C125.666003,10.514 126.060332,10.648332 126.363667,10.917 C126.667002,11.185668 126.818667,11.5453311 126.818667,11.996 C126.818667,12.4466689 126.671335,12.8106653 126.376667,13.088 C126.081999,13.3653347 125.683336,13.504 125.180667,13.504 C124.677998,13.504 124.279335,13.3653347 123.984667,13.088 Z M136.573,27.427 C136.737668,27.5916675 136.82,27.8213319 136.82,28.116 C136.82,28.4626684 136.685668,28.7269991 136.417,28.909 C136.148332,29.0910009 135.754003,29.1646668 135.234,29.13 L134.532,29.078 C133.127993,28.9739995 132.079337,28.5450038 131.386,27.791 C130.692664,27.0369962 130.346,25.9233407 130.346,24.45 L130.346,18.34 L128.786,18.34 C128.02333,18.34 127.642,18.0020034 127.642,17.326 C127.642,17.0139984 127.741666,16.7670009 127.941,16.585 C128.140335,16.4029991 128.421999,16.312 128.786,16.312 L130.346,16.312 L130.346,13.634 C130.346,13.2353313 130.462999,12.9233345 130.697,12.698 C130.931002,12.4726655 131.247332,12.36 131.646,12.36 C132.044669,12.36 132.365333,12.4726655 132.608,12.698 C132.850668,12.9233345 132.972,13.2353313 132.972,13.634 L132.972,16.312 L135.546,16.312 C135.910002,16.312 136.191666,16.4029991 136.391,16.585 C136.590335,16.7670009 136.69,17.0139984 136.69,17.326 C136.69,17.655335 136.590335,17.9066658 136.391,18.08 C136.191666,18.2533342 135.910002,18.34 135.546,18.34 L132.972,18.34 L132.972,24.632 C132.972,25.4466707 133.140999,26.0446648 133.479,26.426 C133.817002,26.8073352 134.332664,27.0239997 135.026,27.076 L135.754,27.128 C136.135336,27.1626668 136.408333,27.2623325 136.573,27.427 Z M138.488334,28.818 C138.236999,28.609999 138.111334,28.2980021 138.111334,27.882 L138.111334,17.326 C138.111334,16.9099979 138.236999,16.5936678 138.488334,16.377 C138.739668,16.1603323 139.055999,16.052 139.437334,16.052 C139.818669,16.052 140.130666,16.1603323 140.373334,16.377 C140.616002,16.5936678 140.737334,16.9099979 140.737334,17.326 L140.737334,27.882 C140.737334,28.2980021 140.616002,28.609999 140.373334,28.818 C140.130666,29.026001 139.818669,29.13 139.437334,29.13 C139.055999,29.13 138.739668,29.026001 138.488334,28.818 Z M138.241334,13.088 C137.946666,12.8106653 137.799334,12.4466689 137.799334,11.996 C137.799334,11.5453311 137.946666,11.185668 138.241334,10.917 C138.536002,10.648332 138.934665,10.514 139.437334,10.514 C139.92267,10.514 140.316999,10.648332 140.620334,10.917 C140.923669,11.185668 141.075334,11.5453311 141.075334,11.996 C141.075334,12.4466689 140.928002,12.8106653 140.633334,13.088 C140.338666,13.3653347 139.940003,13.504 139.437334,13.504 C138.934665,13.504 138.536002,13.3653347 138.241334,13.088 Z M154.872667,27.934 C154.872667,28.263335 154.755668,28.5449988 154.521667,28.779 C154.287666,29.0130012 154.006002,29.13 153.676667,29.13 C153.347332,29.13 153.044002,28.9826681 152.766667,28.688 L148.788667,24.216 L144.836667,28.688 C144.559332,28.9826681 144.256002,29.13 143.926667,29.13 C143.597332,29.13 143.315668,29.0086679 143.081667,28.766 C142.847666,28.5233321 142.730667,28.237335 142.730667,27.908 C142.730667,27.578665 142.851999,27.2840013 143.094667,27.024 L147.202667,22.5 L143.302667,18.158 C143.042666,17.8633319 142.912667,17.5686681 142.912667,17.274 C142.912667,16.944665 143.033999,16.6630012 143.276667,16.429 C143.519335,16.1949988 143.796666,16.078 144.108667,16.078 C144.438002,16.078 144.741332,16.2253319 145.018667,16.52 L148.788667,20.784 L152.558667,16.52 C152.836002,16.2253319 153.147999,16.078 153.494667,16.078 C153.806669,16.078 154.083999,16.1949988 154.326667,16.429 C154.569335,16.6630012 154.690667,16.944665 154.690667,17.274 C154.690667,17.603335 154.560668,17.8979987 154.300667,18.158 L150.400667,22.5 L154.482667,27.024 C154.742668,27.2840013 154.872667,27.5873316 154.872667,27.934 Z" id="humanitix-copy-4" fill="#323232"></path>
            </g>
        </g>
    </g>
</svg>